# Blender 5.0.1
# www.blender.org
mtllib objectobj4.mtl
o T形块
v 0.013000 0.033000 0.024000
v 0.013000 -0.033000 0.024000
v -0.013000 0.033000 0.024000
v -0.013000 -0.033000 0.024000
v 0.013000 0.033000 0.050000
v -0.013000 0.033000 0.050000
v 0.013000 -0.033000 0.050000
v -0.013000 -0.033000 0.050000
v 0.013000 -0.013000 -0.050000
v 0.013000 -0.013000 0.037000
v -0.013000 -0.013000 -0.050000
v -0.013000 -0.013000 0.037000
v 0.013000 0.013000 -0.050000
v -0.013000 0.013000 -0.050000
v -0.013000 -0.013000 -0.050000
v 0.013000 0.013000 0.037000
v -0.013000 0.013000 0.037000
v -0.013000 0.013000 -0.050000
v -0.013000 0.013000 0.037000
v -0.013000 -0.013000 0.037000
vn -0.0000 -0.0000 -1.0000
vn -0.0000 1.0000 -0.0000
vn -0.0000 -0.0000 1.0000
vn -0.0000 -1.0000 -0.0000
vn 1.0000 -0.0000 -0.0000
vn -1.0000 -0.0000 -0.0000
vt 0.169935 1.000000
vt 0.169935 0.568627
vt 0.339869 1.000000
vt 0.339869 0.568627
vt 0.339869 0.738562
vt 0.509804 0.738562
vt 0.509804 0.568627
vt 0.679739 0.431373
vt 0.679739 0.000000
vt 0.849673 0.431373
vt 0.849673 0.000000
vt 0.679739 0.738562
vt 0.679739 0.568627
vt 0.000000 0.568627
vt -0.000000 1.000000
vt 0.849673 0.862745
vt 0.679739 0.862745
vt 0.000000 0.000000
vt 0.169935 0.000000
vt 0.339869 0.908497
vt 0.509804 0.908497
vt 0.339869 -0.000000
vt 0.679739 0.908497
vt 0.509804 0.000000
s 1
usemtl Material.001
f 1/1/1 2/2/1 3/3/1
f 3/3/1 2/2/1 4/4/1
f 5/5/2 1/4/2 6/6/2
f 6/6/2 1/4/2 3/7/2
f 7/8/3 5/9/3 8/10/3
f 8/10/3 5/9/3 6/11/3
f 2/6/4 7/7/4 4/12/4
f 4/12/4 7/7/4 8/13/4
f 5/2/5 7/1/5 1/14/5
f 1/14/5 7/1/5 2/15/5
f 8/10/6 6/16/6 4/8/6
f 4/8/6 6/16/6 3/17/6
f 9/14/4 10/18/4 11/2/4
f 11/2/4 10/18/4 12/19/4
f 13/20/1 9/5/1 14/21/1
f 14/21/1 9/5/1 15/6/1
f 16/2/2 13/19/2 17/4/2
f 17/4/2 13/19/2 18/22/2
f 10/6/3 16/12/3 12/21/3
f 12/21/3 16/12/3 17/23/3
f 13/24/5 16/7/5 9/22/5
f 9/22/5 16/7/5 10/4/5
f 19/7/6 14/24/6 20/13/6
f 20/13/6 14/24/6 15/9/6
